<svg width="29" height="29" viewBox="0 0 29 29" fill="none" xmlns="http://www.w3.org/2000/svg">
<path d="M23.7185 11.7739L20.8786 14.6138L23.7185 17.4537L26.5584 14.6138L23.7185 11.7739Z" fill="black"/>
<path d="M4.82136 11.7754L1.98145 14.6154L4.82136 17.4553L7.66128 14.6154L4.82136 11.7754Z" fill="black"/>
<path d="M14.2692 21.2259L9.56173 16.5184L6.72235 19.3578L14.2692 26.9047L21.8161 19.3578L18.9767 16.5184L14.2692 21.2259Z" fill="black"/>
<path d="M14.2692 8.00468L18.9767 12.7122L21.8161 9.8728L14.2692 2.32593L6.72235 9.8728L9.56173 12.7122L14.2692 8.00468Z" fill="black"/>
<path d="M14.2676 11.811L11.4633 14.6154L14.2676 17.4197L17.0719 14.6154L14.2676 11.811Z" fill="black"/>
</svg>
