<svg width="83" height="29" viewBox="0 0 83 29" fill="none" xmlns="http://www.w3.org/2000/svg">
<path d="M27.4441 4.4302H5.03432C3.99597 4.4302 3.00015 4.84268 2.26593 5.5769C1.53171 6.31113 1.11923 7.30694 1.11923 8.34529V21.4779C1.11923 22.5163 1.53171 23.5121 2.26593 24.2463C3.00015 24.9805 3.99597 25.393 5.03432 25.393H27.4441C27.9583 25.393 28.4674 25.2917 28.9424 25.095C29.4174 24.8982 29.849 24.6099 30.2125 24.2463C30.5761 23.8828 30.8645 23.4512 31.0612 22.9762C31.258 22.5012 31.3592 21.9921 31.3592 21.4779V8.34529C31.3592 7.83115 31.258 7.32205 31.0612 6.84705C30.8645 6.37205 30.5761 5.94045 30.2125 5.5769C29.849 5.21335 29.4174 4.92497 28.9424 4.72822C28.4674 4.53147 27.9583 4.4302 27.4441 4.4302ZM2.92526 8.34529C2.92526 7.78593 3.14747 7.24949 3.54299 6.85396C3.93851 6.45844 4.47496 6.23624 5.03432 6.23624H27.4441C28.0035 6.23624 28.5399 6.45844 28.9355 6.85396C29.331 7.24949 29.5532 7.78593 29.5532 8.34529V8.94831H2.92526V8.34529ZM29.5532 21.4779C29.5532 22.0373 29.331 22.5737 28.9355 22.9693C28.5399 23.3648 28.0035 23.587 27.4441 23.587H5.03432C4.47496 23.587 3.93851 23.3648 3.54299 22.9693C3.14747 22.5737 2.92526 22.0373 2.92526 21.4779V11.5074H29.5532V21.4779Z" fill="black" stroke="black" stroke-width="0.3"/>
<path d="M4.85189 16.2384H9.37C9.6095 16.2384 9.83918 16.1433 10.0085 15.9739C10.1779 15.8046 10.273 15.5749 10.273 15.3354C10.273 15.0959 10.1779 14.8662 10.0085 14.6969C9.83918 14.5275 9.6095 14.4324 9.37 14.4324H4.85189C4.6124 14.4324 4.38271 14.5275 4.21336 14.6969C4.04402 14.8662 3.94888 15.0959 3.94888 15.3354C3.94888 15.5749 4.04402 15.8046 4.21336 15.9739C4.38271 16.1433 4.6124 16.2384 4.85189 16.2384Z" fill="black" stroke="black" stroke-width="0.3"/>
<path d="M15.9529 16.2384H25.7421C25.9816 16.2384 26.2113 16.1433 26.3807 15.9739C26.55 15.8046 26.6452 15.5749 26.6452 15.3354C26.6452 15.0959 26.55 14.8662 26.3807 14.6969C26.2113 14.5275 25.9816 14.4324 25.7421 14.4324H15.9529C15.7134 14.4324 15.4837 14.5275 15.3144 14.6969C15.145 14.8662 15.0499 15.0959 15.0499 15.3354C15.0499 15.5749 15.145 15.8046 15.3144 15.9739C15.4837 16.1433 15.7134 16.2384 15.9529 16.2384Z" fill="black" stroke="black" stroke-width="0.3"/>
<path d="M36.9606 19.8977V10H38.9299V19.8977H36.9606ZM33 15.9299V13.9606H42.8977V15.9299H33Z" fill="black"/>
<path d="M71.7692 3.61536C65.9702 3.61536 61.2692 8.31637 61.2692 14.1154C61.2692 19.9143 65.9702 24.6154 71.7692 24.6154C77.5682 24.6154 82.2692 19.9143 82.2692 14.1154C82.2692 8.31637 77.5682 3.61536 71.7692 3.61536ZM71.6331 21.0719L67.4836 15.2022L71.6331 17.6317V21.0719ZM71.6331 16.7714L67.4555 14.3243L71.6331 12.4944V16.7714ZM71.6331 12.2004L67.5901 13.9712L71.6331 7.17837V12.2004ZM71.9024 7.17633L76.0022 13.9964L71.9024 12.2004V7.17633ZM71.9024 21.0719V17.6317L76.0519 15.2022L71.9024 21.0719ZM71.9024 16.7715V12.4945L76.083 14.3257L71.9024 16.7715Z" fill="black"/>
<circle cx="54.7692" cy="14.1154" r="11.5" fill="#FCCD03"/>
<path d="M56.0601 12.906V14.4783C55.6467 14.499 55.2144 14.5104 54.7692 14.5104C54.2856 14.5104 53.8175 14.4972 53.3722 14.4724V13.2171H53.3719V12.9108C50.9015 13.0297 49.0727 13.4569 49.0727 13.9657C49.0727 14.5668 51.6231 15.0537 54.7693 15.0537C57.9154 15.0537 60.466 14.5668 60.466 13.9657C60.4659 13.4494 58.5842 13.0176 56.0601 12.906Z" fill="black"/>
<path d="M56.0599 21.0295H56.5599V20.5295V16.3672C57.8585 16.2714 59.0111 16.0728 59.8783 15.7988C60.3607 15.6464 60.7836 15.4619 61.0966 15.2391C61.3958 15.0261 61.697 14.7014 61.6971 14.2551V14.255C61.6971 13.8086 61.3957 13.484 61.0966 13.271C60.7836 13.0482 60.3608 12.8637 59.8784 12.7114C59.0112 12.4374 57.8586 12.2388 56.56 12.1429L56.56 11.8205H59.7198H60.2198V11.3205V8.63251V8.13251H59.7198H49.7123H49.2123V8.63251V11.3205V11.8205H49.7123H52.8718V12.1513C51.5999 12.2515 50.4728 12.4507 49.6247 12.7229C49.1522 12.8746 48.7375 13.058 48.4304 13.2794C48.1361 13.4916 47.8416 13.8139 47.8416 14.255C47.8416 14.6961 48.1361 15.0184 48.4304 15.2307C48.7375 15.4522 49.1522 15.6356 49.6247 15.7873C50.4728 16.0595 51.5999 16.2586 52.8718 16.3587V20.5295V21.0295H53.3718H56.0599ZM44.7692 14.1153C44.7692 8.59234 49.2465 4.11536 54.7692 4.11536C60.2919 4.11536 64.7691 8.59233 64.7691 14.1153C64.7691 19.6379 60.292 24.1154 54.7692 24.1154C49.2465 24.1154 44.7692 19.6379 44.7692 14.1153Z" fill="black" stroke="black"/>
</svg>
