<svg width="18" height="14" viewBox="0 0 18 14" fill="none" xmlns="http://www.w3.org/2000/svg">
<path fill-rule="evenodd" clip-rule="evenodd" d="M4.49719 0.521531C7.41055 0.293604 10.3372 0.293604 13.2505 0.521531L15.2075 0.674635C16.2976 0.759912 17.1893 1.57687 17.3695 2.6553C17.8203 5.35359 17.8203 8.10806 17.3695 10.8064C17.1893 11.8847 16.2976 12.7017 15.2075 12.787L13.2505 12.9401C10.3372 13.168 7.41055 13.168 4.49719 12.9401L2.54021 12.787C1.45016 12.7017 0.558424 11.8847 0.378236 10.8064C-0.072612 8.10806 -0.072612 5.35359 0.378236 2.6553C0.558424 1.57687 1.45016 0.759912 2.54021 0.674635L4.49719 0.521531ZM7.12705 8.88816V4.57345C7.12705 4.36978 7.34924 4.24398 7.52383 4.34877L11.1195 6.50619C11.2892 6.60794 11.2892 6.85371 11.1195 6.95546L7.52383 9.11288C7.34924 9.21769 7.12705 9.09184 7.12705 8.88816Z" fill="#FCCD03"/>
</svg>
