<svg width="161" height="160" viewBox="0 0 161 160" fill="none" xmlns="http://www.w3.org/2000/svg"><path d="M105.74 69.3342C106.051 69.0234 106.297 68.6545 106.466 68.2484C106.634 67.8423 106.72 67.4071 106.72 66.9676C106.72 66.528 106.634 66.0928 106.466 65.6867C106.297 65.2807 106.051 64.9117 105.74 64.6009C105.429 64.2901 105.06 64.0436 104.654 63.8754C104.248 63.7072 103.813 63.6206 103.373 63.6206C102.934 63.6206 102.499 63.7072 102.093 63.8754C101.686 64.0436 101.317 64.2901 101.007 64.6009L77.2733 88.3342L65.74 76.8009C65.1123 76.1732 64.261 75.8206 63.3733 75.8206C62.4857 75.8206 61.6344 76.1732 61.0067 76.8009C60.379 77.4286 60.0264 78.2799 60.0264 79.1676C60.0264 80.0552 60.379 80.9066 61.0067 81.5342L74.8733 95.4009C75.5101 96.0113 76.358 96.352 77.24 96.352C78.122 96.352 78.9699 96.0113 79.6067 95.4009L105.74 69.3342Z" fill="white"/><path d="M80.3398 146.228C67.2411 146.229 54.4362 142.346 43.5444 135.07C32.6526 127.794 24.1632 117.451 19.1496 105.35C14.136 93.2484 12.8236 79.9322 15.3782 67.085C17.9328 54.2379 24.2398 42.4368 33.5015 33.1741C42.7632 23.9115 54.5636 17.6034 67.4105 15.0475C80.2574 12.4915 93.5737 13.8027 105.675 18.815C117.777 23.8274 128.121 32.3158 135.398 43.2069C142.676 54.0979 146.56 66.9024 146.56 80.0011C146.54 97.5584 139.558 114.391 127.143 126.807C114.729 139.222 97.8971 146.207 80.3398 146.228ZM80.3398 20.4478C68.5594 20.4465 57.0431 23.9386 47.2475 30.4827C37.4519 37.0267 29.8169 46.3286 25.3082 57.2121C20.7994 68.0955 19.6193 80.0716 21.9172 91.6257C24.2152 103.18 29.8878 113.793 38.2179 122.123C46.5479 130.453 57.1611 136.126 68.7152 138.424C80.2693 140.722 92.2454 139.542 103.129 135.033C114.012 130.524 123.314 122.889 129.858 113.093C136.402 103.298 139.894 91.7815 139.893 80.0011C139.874 64.2125 133.593 49.0762 122.429 37.912C111.265 26.7478 96.1284 20.4672 80.3398 20.4478Z" fill="white"/></svg>