<svg width="21" height="21" viewBox="0 0 21 21" fill="none" xmlns="http://www.w3.org/2000/svg"><path fill-rule="evenodd" clip-rule="evenodd" d="M6.49719 4.52153C9.41055 4.2936 12.3372 4.2936 15.2505 4.52153L17.2075 4.67463C18.2976 4.75991 19.1893 5.57687 19.3695 6.6553C19.8203 9.35359 19.8203 12.1081 19.3695 14.8064C19.1893 15.8847 18.2976 16.7017 17.2075 16.787L15.2505 16.9401C12.3372 17.168 9.41055 17.168 6.49719 16.9401L4.54021 16.787C3.45016 16.7017 2.55842 15.8847 2.37824 14.8064C1.92739 12.1081 1.92739 9.35359 2.37824 6.6553C2.55842 5.57687 3.45016 4.75991 4.54021 4.67463L6.49719 4.52153ZM9.12705 12.8882V8.57345C9.12705 8.36978 9.34924 8.24398 9.52383 8.34877L13.1195 10.5062C13.2892 10.6079 13.2892 10.8537 13.1195 10.9555L9.52383 13.1129C9.34924 13.2177 9.12705 13.0918 9.12705 12.8882Z" fill="#FCCD03"/></svg>