<svg width="26" height="26" viewBox="0 0 26 26" fill="none" xmlns="http://www.w3.org/2000/svg"><path d="M20.071 23.3728H6.18146C5.46612 23.3728 4.78007 23.0887 4.27425 22.5828C3.76842 22.077 3.48425 21.391 3.48425 20.6756V6.78608C3.48425 6.07073 3.76842 5.38469 4.27425 4.87886C4.78007 4.37304 5.46612 4.08887 6.18146 4.08887H20.071C20.7864 4.08887 21.4724 4.37304 21.9782 4.87886C22.4841 5.38469 22.7682 6.07073 22.7682 6.78608V20.6756C22.7682 21.391 22.4841 22.077 21.9782 22.5828C21.4724 23.0887 20.7864 23.3728 20.071 23.3728ZM6.18146 5.16775C5.75226 5.16775 5.34063 5.33825 5.03713 5.64175C4.73364 5.94524 4.56314 6.35687 4.56314 6.78608V20.6756C4.56314 21.1048 4.73364 21.5165 5.03713 21.82C5.34063 22.1234 5.75226 22.294 6.18146 22.294H20.071C20.5002 22.294 20.9118 22.1234 21.2153 21.82C21.5188 21.5165 21.6893 21.1048 21.6893 20.6756V6.78608C21.6893 6.35687 21.5188 5.94524 21.2153 5.64175C20.9118 5.33825 20.5002 5.16775 20.071 5.16775H6.18146Z" fill="#FCCD03" stroke="#FCCD03" stroke-width="0.616505"/><path d="M13.1262 18.6864C12.1459 18.6854 11.1879 18.3937 10.3733 17.8482C9.55878 17.3028 8.92421 16.5281 8.54985 15.6221C8.17549 14.7161 8.07815 13.7194 8.27013 12.7581C8.46211 11.7968 8.9348 10.9139 9.62843 10.2212C10.3221 9.52848 11.2055 9.05694 12.1671 8.86622C13.1287 8.67549 14.1252 8.77413 15.0307 9.14968C15.9363 9.52522 16.7101 10.1608 17.2545 10.9761C17.7989 11.7914 18.0893 12.7497 18.0891 13.73C18.0874 15.0451 17.5637 16.3058 16.6332 17.2351C15.7027 18.1644 14.4413 18.6864 13.1262 18.6864ZM13.1262 9.84605C12.3596 9.84712 11.6104 10.0754 10.9734 10.502C10.3364 10.9286 9.84012 11.5344 9.54723 12.2429C9.25434 12.9514 9.17798 13.7308 9.32781 14.4826C9.47764 15.2345 9.84693 15.9251 10.389 16.4672C10.9311 17.0093 11.6217 17.3786 12.3736 17.5284C13.1255 17.6783 13.9049 17.6019 14.6134 17.309C15.3219 17.0161 15.9277 16.5198 16.3543 15.8828C16.7809 15.2458 17.0091 14.4967 17.0102 13.73C17.0102 12.6999 16.601 11.712 15.8726 10.9836C15.1442 10.2553 14.1563 9.84605 13.1262 9.84605Z" fill="#FCCD03" stroke="#FCCD03" stroke-width="0.616505"/><path d="M18.7364 9.31276C19.3769 9.31276 19.8962 8.7935 19.8962 8.15296C19.8962 7.51242 19.3769 6.99316 18.7364 6.99316C18.0959 6.99316 17.5766 7.51242 17.5766 8.15296C17.5766 8.7935 18.0959 9.31276 18.7364 9.31276Z" fill="#FCCD03" stroke="#FCCD03" stroke-width="0.616505"/></svg>