<svg width="21" height="18" viewBox="0 0 21 18" fill="none" xmlns="http://www.w3.org/2000/svg"><path fill-rule="evenodd" clip-rule="evenodd" d="M17.4831 16.7902L17.4838 16.7884L17.5012 16.7449L20.5 1.62592V1.57681C20.5 1.20011 20.3608 0.871249 20.0579 0.673989C19.7928 0.501329 19.4881 0.489039 19.2744 0.505259C19.0483 0.522409 18.8352 0.578829 18.6877 0.625789C18.6118 0.649949 18.5483 0.673219 18.5028 0.690829C18.48 0.699669 18.4615 0.707169 18.4481 0.712749L18.4349 0.718309L1.71508 7.27725L1.71048 7.27885C1.70145 7.28215 1.68951 7.28665 1.67508 7.29225C1.64633 7.30345 1.60719 7.31945 1.56121 7.34035C1.47093 7.38125 1.34619 7.44435 1.21969 7.53095C1.00484 7.67815 0.595723 8.02645 0.664803 8.57865C0.722023 9.03605 1.03733 9.32655 1.2499 9.47695C1.36384 9.55765 1.47286 9.61575 1.55269 9.65375C1.59313 9.67305 1.62749 9.68775 1.65308 9.69815C1.66591 9.70335 1.67663 9.70755 1.68493 9.71075L1.69556 9.71465L1.70235 9.71725L4.62759 10.702C4.61772 10.8855 4.63592 11.0726 4.68459 11.2573L6.14988 16.8157C6.32361 17.4747 6.91984 17.9338 7.60141 17.9333C8.21234 17.9329 8.75417 17.5633 8.98435 17.0119L11.272 14.5658L15.201 17.578L15.2569 17.6024C15.6138 17.7582 15.9474 17.8075 16.2523 17.7659C16.5568 17.7243 16.7987 17.5966 16.9805 17.4512C17.1594 17.3081 17.2819 17.1466 17.359 17.025C17.3982 16.9632 17.4274 16.9089 17.4476 16.868C17.4578 16.8475 17.4658 16.8302 17.4718 16.8166L17.4794 16.7992L17.4821 16.7928L17.4831 16.7902ZM6.13499 10.8749C6.10169 10.7486 6.15397 10.6152 6.26426 10.5452L16.1863 4.24432C16.1863 4.24432 16.7699 3.89002 16.749 4.24432C16.749 4.24432 16.8532 4.30688 16.5404 4.59861C16.2438 4.87569 9.4688 11.4167 8.78322 12.0786C8.74365 12.1168 8.72003 12.1606 8.70608 12.2138L7.60028 16.4333L6.13499 10.8749Z" fill="#FCCD03"/></svg>