<svg width="22" height="22" viewBox="0 0 22 22" fill="none" xmlns="http://www.w3.org/2000/svg"><path d="M4.95927 1.8877C3.93426 1.8877 3.10333 2.71862 3.10333 3.74363C3.10333 4.76863 3.93426 5.59957 4.95927 5.59957C5.98427 5.59957 6.81521 4.76863 6.81521 3.74363C6.81521 2.71862 5.98427 1.8877 4.95927 1.8877Z" fill="#FCCD03"/><path d="M3.21251 7.12793C3.15221 7.12793 3.10333 7.1768 3.10333 7.2371V18.5911C3.10333 18.6513 3.15221 18.7002 3.21251 18.7002H6.70603C6.76633 18.7002 6.81521 18.6513 6.81521 18.5911V7.2371C6.81521 7.1768 6.76633 7.12793 6.70603 7.12793H3.21251Z" fill="#FCCD03"/><path d="M8.88945 7.12793C8.82915 7.12793 8.78027 7.1768 8.78027 7.2371V18.5911C8.78027 18.6513 8.82915 18.7002 8.88945 18.7002H12.383C12.4432 18.7002 12.4921 18.6513 12.4921 18.5911V12.4774C12.4921 12.0431 12.6646 11.6265 12.9718 11.3195C13.2789 11.0123 13.6954 10.8398 14.1297 10.8398C14.5641 10.8398 14.9806 11.0123 15.2877 11.3195C15.5948 11.6265 15.7673 12.0431 15.7673 12.4774V18.5911C15.7673 18.6513 15.8162 18.7002 15.8765 18.7002H19.37C19.4303 18.7002 19.4792 18.6513 19.4792 18.5911V11.0627C19.4792 8.94325 17.6358 7.28513 15.527 7.47685C14.8767 7.53596 14.2337 7.69765 13.6332 7.95497L12.4921 8.44399V7.2371C12.4921 7.1768 12.4432 7.12793 12.383 7.12793H8.88945Z" fill="#FCCD03"/></svg>