<svg xmlns="http://www.w3.org/2000/svg" xmlns:xlink="http://www.w3.org/1999/xlink"><symbol id="socials-fsbk" viewBox="0 0 10 17"><g fill="none">
<path d="M6.79071 0.71582C5.71942 0.71582 4.69197 1.1414 3.9344 1.89893C3.17692 2.65647 2.75132 3.6839 2.75132 4.75521V7.00417H0.589699C0.481173 7.00417 0.393188 7.09212 0.393188 7.20068V10.1702C0.393188 10.2787 0.481173 10.3667 0.589699 10.3667H2.75132V16.4585C2.75132 16.5671 2.8393 16.655 2.94783 16.655H5.91733C6.02589 16.655 6.11384 16.5671 6.11384 16.4585V10.3667H8.29459C8.38481 10.3667 8.46341 10.3053 8.48525 10.2179L9.22762 7.24837C9.25863 7.12435 9.16483 7.00417 9.03696 7.00417H6.11384V4.75521C6.11384 4.5757 6.1852 4.40353 6.3121 4.27659C6.439 4.14965 6.61123 4.07834 6.79071 4.07834H9.0615C9.17006 4.07834 9.25801 3.99036 9.25801 3.88183V0.912331C9.25801 0.803805 9.17006 0.71582 9.0615 0.71582H6.79071Z" fill="#FCCD03"/>
</g></symbol><symbol id="socials-inst" viewBox="0 0 27 27"><g fill="none">
<path d="M20.071 23.3728H6.18146C5.46612 23.3728 4.78007 23.0887 4.27425 22.5828C3.76842 22.077 3.48425 21.391 3.48425 20.6756V6.78608C3.48425 6.07073 3.76842 5.38469 4.27425 4.87886C4.78007 4.37304 5.46612 4.08887 6.18146 4.08887H20.071C20.7864 4.08887 21.4724 4.37304 21.9782 4.87886C22.4841 5.38469 22.7682 6.07073 22.7682 6.78608V20.6756C22.7682 21.391 22.4841 22.077 21.9782 22.5828C21.4724 23.0887 20.7864 23.3728 20.071 23.3728ZM6.18146 5.16775C5.75226 5.16775 5.34063 5.33825 5.03713 5.64175C4.73364 5.94524 4.56314 6.35687 4.56314 6.78608V20.6756C4.56314 21.1048 4.73364 21.5165 5.03713 21.82C5.34063 22.1234 5.75226 22.294 6.18146 22.294H20.071C20.5002 22.294 20.9118 22.1234 21.2153 21.82C21.5188 21.5165 21.6893 21.1048 21.6893 20.6756V6.78608C21.6893 6.35687 21.5188 5.94524 21.2153 5.64175C20.9118 5.33825 20.5002 5.16775 20.071 5.16775H6.18146Z" fill="#FCCD03" stroke="#FCCD03" stroke-width="0.616505"/>
<path d="M13.1262 18.6864C12.1459 18.6854 11.1879 18.3937 10.3733 17.8482C9.55878 17.3028 8.92421 16.5281 8.54985 15.6221C8.17549 14.7161 8.07815 13.7194 8.27013 12.7581C8.46211 11.7968 8.9348 10.9139 9.62843 10.2212C10.3221 9.52848 11.2055 9.05694 12.1671 8.86622C13.1287 8.67549 14.1252 8.77413 15.0307 9.14968C15.9363 9.52522 16.7101 10.1608 17.2545 10.9761C17.7989 11.7914 18.0893 12.7497 18.0891 13.73C18.0874 15.0451 17.5637 16.3058 16.6332 17.2351C15.7027 18.1644 14.4413 18.6864 13.1262 18.6864ZM13.1262 9.84605C12.3596 9.84712 11.6104 10.0754 10.9734 10.502C10.3364 10.9286 9.84012 11.5344 9.54723 12.2429C9.25434 12.9514 9.17798 13.7308 9.32781 14.4826C9.47764 15.2345 9.84693 15.9251 10.389 16.4672C10.9311 17.0093 11.6217 17.3786 12.3736 17.5284C13.1255 17.6783 13.9049 17.6019 14.6134 17.309C15.3219 17.0161 15.9277 16.5198 16.3543 15.8828C16.7809 15.2458 17.0091 14.4967 17.0102 13.73C17.0102 12.6999 16.601 11.712 15.8726 10.9836C15.1442 10.2553 14.1563 9.84605 13.1262 9.84605Z" fill="#FCCD03" stroke="#FCCD03" stroke-width="0.616505"/>
<path d="M18.7364 9.31276C19.3769 9.31276 19.8962 8.7935 19.8962 8.15296C19.8962 7.51242 19.3769 6.99316 18.7364 6.99316C18.0959 6.99316 17.5766 7.51242 17.5766 8.15296C17.5766 8.7935 18.0959 9.31276 18.7364 9.31276Z" fill="#FCCD03" stroke="#FCCD03" stroke-width="0.616505"/>
</g></symbol><symbol id="socials-lkdn" viewBox="0 0 22 22"><g fill="none">
<path d="M4.95927 1.8877C3.93426 1.8877 3.10333 2.71862 3.10333 3.74363C3.10333 4.76863 3.93426 5.59957 4.95927 5.59957C5.98427 5.59957 6.81521 4.76863 6.81521 3.74363C6.81521 2.71862 5.98427 1.8877 4.95927 1.8877Z" fill="#FCCD03"/>
<path d="M3.21251 7.12793C3.15221 7.12793 3.10333 7.1768 3.10333 7.2371V18.5911C3.10333 18.6513 3.15221 18.7002 3.21251 18.7002H6.70603C6.76633 18.7002 6.81521 18.6513 6.81521 18.5911V7.2371C6.81521 7.1768 6.76633 7.12793 6.70603 7.12793H3.21251Z" fill="#FCCD03"/>
<path d="M8.88945 7.12793C8.82915 7.12793 8.78027 7.1768 8.78027 7.2371V18.5911C8.78027 18.6513 8.82915 18.7002 8.88945 18.7002H12.383C12.4432 18.7002 12.4921 18.6513 12.4921 18.5911V12.4774C12.4921 12.0431 12.6646 11.6265 12.9718 11.3195C13.2789 11.0123 13.6954 10.8398 14.1297 10.8398C14.5641 10.8398 14.9806 11.0123 15.2877 11.3195C15.5948 11.6265 15.7673 12.0431 15.7673 12.4774V18.5911C15.7673 18.6513 15.8162 18.7002 15.8765 18.7002H19.37C19.4303 18.7002 19.4792 18.6513 19.4792 18.5911V11.0627C19.4792 8.94325 17.6358 7.28513 15.527 7.47685C14.8767 7.53596 14.2337 7.69765 13.6332 7.95497L12.4921 8.44399V7.2371C12.4921 7.1768 12.4432 7.12793 12.383 7.12793H8.88945Z" fill="#FCCD03"/>
</g></symbol><symbol id="socials-yout" viewBox="0 0 18 14"><g fill="none">
<path fill-rule="evenodd" clip-rule="evenodd" d="M4.49719 0.521531C7.41055 0.293604 10.3372 0.293604 13.2505 0.521531L15.2075 0.674635C16.2976 0.759912 17.1893 1.57687 17.3695 2.6553C17.8203 5.35359 17.8203 8.10806 17.3695 10.8064C17.1893 11.8847 16.2976 12.7017 15.2075 12.787L13.2505 12.9401C10.3372 13.168 7.41055 13.168 4.49719 12.9401L2.54021 12.787C1.45016 12.7017 0.558424 11.8847 0.378236 10.8064C-0.072612 8.10806 -0.072612 5.35359 0.378236 2.6553C0.558424 1.57687 1.45016 0.759912 2.54021 0.674635L4.49719 0.521531ZM7.12705 8.88816V4.57345C7.12705 4.36978 7.34924 4.24398 7.52383 4.34877L11.1195 6.50619C11.2892 6.60794 11.2892 6.85371 11.1195 6.95546L7.52383 9.11288C7.34924 9.21769 7.12705 9.09184 7.12705 8.88816Z" fill="#FCCD03"/>
</g></symbol></svg>