<svg width="32" height="32" viewBox="0 0 32 32" fill="none" xmlns="http://www.w3.org/2000/svg"><path d="M5 9.99994C5 8.89537 5.85961 7.99994 6.92 7.99994H25.08C26.1404 7.99994 27 8.89537 27 9.99994V11.9999C27 12.5522 26.5382 12.9831 26.0213 13.1776C24.9125 13.5949 24.12 14.701 24.12 15.9999C24.12 17.2989 24.9125 18.405 26.0213 18.8223C26.5382 19.0168 27 19.4477 27 19.9999V21.9999C27 23.1045 26.1404 23.9999 25.08 23.9999H6.92C5.85961 23.9999 5 23.1045 5 21.9999V19.9999C5 19.4477 5.46184 19.0168 5.97873 18.8223C7.08752 18.405 7.88 17.2989 7.88 15.9999C7.88 14.701 7.08752 13.5949 5.97873 13.1776C5.46184 12.9831 5 12.5522 5 11.9999V9.99994Z" stroke="white" stroke-width="1.5" stroke-linecap="round"/><line x1="11.75" y1="8.74994" x2="11.75" y2="23.2499" stroke="white" stroke-width="1.5" stroke-linecap="round" stroke-dasharray="2.6 3.2"/></svg>