<svg width="63" height="63" viewBox="0 0 63 63" fill="none" xmlns="http://www.w3.org/2000/svg">
<path d="M29.4229 31.4965L36.352 38.452C36.5916 38.6965 36.7251 39.0256 36.7233 39.3679C36.7216 39.7102 36.5849 40.038 36.3428 40.28C36.1008 40.5221 35.773 40.6588 35.4307 40.6606C35.0884 40.6623 34.7592 40.5289 34.5148 40.2893C34.1735 39.9743 33.8586 39.6593 33.5174 39.3181C31.2339 37.0347 28.9242 34.7249 26.6407 32.4152C26.5191 32.2951 26.4226 32.152 26.3567 31.9943C26.2908 31.8367 26.2569 31.6674 26.2569 31.4965C26.2569 31.3256 26.2908 31.1564 26.3567 30.9988C26.4226 30.8411 26.5191 30.698 26.6407 30.5779L34.5148 22.7038C34.7592 22.4642 35.0884 22.3308 35.4307 22.3325C35.773 22.3343 36.1008 22.471 36.3428 22.7131C36.5849 22.9551 36.7216 23.2829 36.7233 23.6252C36.7251 23.9675 36.5916 24.2966 36.3521 24.5411L29.4229 31.4965Z" fill="#ffffff"/>
<path d="M48.3915 54.9595L14.5986 54.9595C12.8583 54.9595 11.1893 54.2682 9.95875 53.0376C8.72818 51.8071 8.03686 50.1381 8.03686 48.3978L8.03686 14.6101C8.03686 12.8698 8.72819 11.2008 9.95875 9.97023C11.1893 8.73966 12.8583 8.04834 14.5986 8.04834L48.3915 8.04835C50.1318 8.04835 51.8008 8.73967 53.0314 9.97024C54.262 11.2008 54.9533 12.8698 54.9533 14.6101L54.9533 48.3978C54.9533 50.1381 54.262 51.8071 53.0314 53.0376C51.8008 54.2682 50.1318 54.9595 48.3915 54.9595ZM14.5986 10.673C13.5544 10.673 12.553 11.0878 11.8147 11.8262C11.0764 12.5645 10.6616 13.5659 10.6616 14.6101L10.6616 48.3978C10.6616 49.4419 11.0763 50.4433 11.8147 51.1817C12.553 51.92 13.5544 52.3348 14.5986 52.3348L48.3915 52.3348C49.4357 52.3348 50.4371 51.92 51.1754 51.1817C51.9138 50.4434 52.3286 49.4419 52.3286 48.3978L52.3286 14.6101C52.3286 13.5659 51.9138 12.5645 51.1755 11.8262C50.4371 11.0878 49.4357 10.673 48.3915 10.673L14.5986 10.673Z" fill="#ffffff"/>
</svg>
