<svg width="9" height="16" viewBox="0 0 10 17" fill="none" xmlns="http://www.w3.org/2000/svg"><path d="M6.79071 0.71582C5.71942 0.71582 4.69197 1.1414 3.9344 1.89893C3.17692 2.65647 2.75132 3.6839 2.75132 4.75521V7.00417H0.589699C0.481173 7.00417 0.393188 7.09212 0.393188 7.20068V10.1702C0.393188 10.2787 0.481173 10.3667 0.589699 10.3667H2.75132V16.4585C2.75132 16.5671 2.8393 16.655 2.94783 16.655H5.91733C6.02589 16.655 6.11384 16.5671 6.11384 16.4585V10.3667H8.29459C8.38481 10.3667 8.46341 10.3053 8.48525 10.2179L9.22762 7.24837C9.25863 7.12435 9.16483 7.00417 9.03696 7.00417H6.11384V4.75521C6.11384 4.5757 6.1852 4.40353 6.3121 4.27659C6.439 4.14965 6.61123 4.07834 6.79071 4.07834H9.0615C9.17006 4.07834 9.25801 3.99036 9.25801 3.88183V0.912331C9.25801 0.803805 9.17006 0.71582 9.0615 0.71582H6.79071Z" fill="#FCCD03"/></svg>